<?xml version="1.0" standalone="no"?>
<svg xmlns:xlink="http://www.w3.org/1999/xlink" id="wave" style="transform:rotate(0deg); transition: 0.3s" viewBox="0 0 1440 490" version="1.1" xmlns="http://www.w3.org/2000/svg"><defs><linearGradient id="sw-gradient-0" x1="0" x2="0" y1="1" y2="0"><stop stop-color="rgba(248, 212, 201, 1)" offset="0%"/><stop stop-color="rgba(248, 212, 201, 1)" offset="100%"/></linearGradient></defs><path style="transform:translate(0, 0px); opacity:1" fill="url(#sw-gradient-0)" d="M0,98L48,114.3C96,131,192,163,288,196C384,229,480,261,576,277.7C672,294,768,294,864,269.5C960,245,1056,196,1152,179.7C1248,163,1344,180,1440,163.3C1536,147,1632,98,1728,98C1824,98,1920,147,2016,204.2C2112,261,2208,327,2304,294C2400,261,2496,131,2592,89.8C2688,49,2784,98,2880,155.2C2976,212,3072,278,3168,269.5C3264,261,3360,180,3456,122.5C3552,65,3648,33,3744,24.5C3840,16,3936,33,4032,89.8C4128,147,4224,245,4320,236.8C4416,229,4512,114,4608,106.2C4704,98,4800,196,4896,253.2C4992,310,5088,327,5184,318.5C5280,310,5376,278,5472,294C5568,310,5664,376,5760,383.8C5856,392,5952,343,6048,302.2C6144,261,6240,229,6336,220.5C6432,212,6528,229,6624,236.8C6720,245,6816,245,6864,245L6912,245L6912,490L6864,490C6816,490,6720,490,6624,490C6528,490,6432,490,6336,490C6240,490,6144,490,6048,490C5952,490,5856,490,5760,490C5664,490,5568,490,5472,490C5376,490,5280,490,5184,490C5088,490,4992,490,4896,490C4800,490,4704,490,4608,490C4512,490,4416,490,4320,490C4224,490,4128,490,4032,490C3936,490,3840,490,3744,490C3648,490,3552,490,3456,490C3360,490,3264,490,3168,490C3072,490,2976,490,2880,490C2784,490,2688,490,2592,490C2496,490,2400,490,2304,490C2208,490,2112,490,2016,490C1920,490,1824,490,1728,490C1632,490,1536,490,1440,490C1344,490,1248,490,1152,490C1056,490,960,490,864,490C768,490,672,490,576,490C480,490,384,490,288,490C192,490,96,490,48,490L0,490Z"/></svg>